<?xml version="1.0" encoding="UTF-8"?>
<svg width="1689.7pt" height="1690pt" version="1.0" viewBox="0 0 1689.7 1690" xmlns="http://www.w3.org/2000/svg">
 <g transform="matrix(.070711 -.070711 -.070711 -.070711 844.84 1750.1)">
  <style>path{ fill: rgba(230, 230, 230, 0.2); }</style>
  <path d="m554 12456c-101-32-194-135-216-239-43-203 156-402 359-359 116 24 221 129 245 245 46 216-177 419-388 353z"/>
  <path d="m1834 12456c-101-32-194-135-216-239-43-203 156-402 359-359 116 24 221 129 245 245 46 216-177 419-388 353z"/>
  <path d="m3114 12456c-101-32-194-135-216-239-43-203 156-402 359-359 116 24 221 129 245 245 46 216-177 419-388 353z"/>
  <path d="m4394 12456c-101-32-194-135-216-239-43-203 156-402 359-359 116 24 221 129 245 245 46 216-177 419-388 353z"/>
  <path d="m5674 12456c-101-32-194-135-216-239-33-156 82-325 245-359 203-43 402 156 359 359-37 175-224 290-388 239z"/>
  <path d="m6954 12456c-101-32-194-135-216-239-33-156 82-325 245-359 203-43 402 156 359 359-37 175-224 290-388 239z"/>
  <path d="m8234 12456c-101-32-194-135-216-239-33-156 82-325 245-359 203-43 402 156 359 359-37 175-224 290-388 239z"/>
  <path d="m9514 12456c-101-32-194-135-216-239-33-156 82-325 245-359 203-43 402 156 359 359-37 175-224 290-388 239z"/>
  <path d="m10794 12456c-101-32-194-135-216-239-43-203 156-402 359-359 116 24 221 129 245 245 46 216-177 419-388 353z"/>
  <path d="m12074 12456c-101-32-194-135-216-239-43-203 156-402 359-359 116 24 221 129 245 245 46 216-177 419-388 353z"/>
  <path d="m554 11176c-101-32-194-135-216-239-43-203 156-402 359-359 116 24 221 129 245 245 46 216-177 419-388 353z"/>
  <path d="m1834 11176c-101-32-194-135-216-239-43-203 156-402 359-359 116 24 221 129 245 245 46 216-177 419-388 353z"/>
  <path d="m3114 11176c-101-32-194-135-216-239-43-203 156-402 359-359 116 24 221 129 245 245 46 216-177 419-388 353z"/>
  <path d="m4394 11176c-101-32-194-135-216-239-43-203 156-402 359-359 116 24 221 129 245 245 46 216-177 419-388 353z"/>
  <path d="m5674 11176c-101-32-194-135-216-239-33-156 82-325 245-359 203-43 402 156 359 359-37 175-224 290-388 239z"/>
  <path d="m6954 11176c-101-32-194-135-216-239-43-203 156-402 359-359 163 34 278 203 245 359-37 175-224 290-388 239z"/>
  <path d="m8234 11176c-101-32-194-135-216-239-43-203 156-402 359-359 163 34 278 203 245 359-37 175-224 290-388 239z"/>
  <path d="m9514 11176c-101-32-194-135-216-239-43-203 156-402 359-359 163 34 278 203 245 359-37 175-224 290-388 239z"/>
  <path d="m10794 11176c-101-32-194-135-216-239-43-203 156-402 359-359 116 24 221 129 245 245 46 216-177 419-388 353z"/>
  <path d="m12074 11176c-101-32-194-135-216-239-43-203 156-402 359-359 116 24 221 129 245 245 46 216-177 419-388 353z"/>
  <path d="m554 9896c-101-32-194-135-216-239-43-203 156-402 359-359 116 24 221 129 245 245 46 216-177 419-388 353z"/>
  <path d="m1834 9896c-101-32-194-135-216-239-43-203 156-402 359-359 116 24 221 129 245 245 46 216-177 419-388 353z"/>
  <path d="m3114 9896c-101-32-194-135-216-239-43-203 156-402 359-359 116 24 221 129 245 245 46 216-177 419-388 353z"/>
  <path d="m4394 9896c-101-32-194-135-216-239-43-203 156-402 359-359 116 24 221 129 245 245 46 216-177 419-388 353z"/>
  <path d="m5674 9896c-101-32-194-135-216-239-43-203 156-402 359-359 116 24 221 129 245 245 46 216-177 419-388 353z"/>
  <path d="m6954 9896c-101-32-194-135-216-239-43-203 156-402 359-359 116 24 221 129 245 245 46 216-177 419-388 353z"/>
  <path d="m8234 9896c-101-32-194-135-216-239-43-203 156-402 359-359 116 24 221 129 245 245 46 216-177 419-388 353z"/>
  <path d="m9514 9896c-101-32-194-135-216-239-43-203 156-402 359-359 116 24 221 129 245 245 46 216-177 419-388 353z"/>
  <path d="m10794 9896c-101-32-194-135-216-239-43-203 156-402 359-359 116 24 221 129 245 245 46 216-177 419-388 353z"/>
  <path d="m12074 9896c-101-32-194-135-216-239-43-203 156-402 359-359 116 24 221 129 245 245 46 216-177 419-388 353z"/>
  <path d="m554 8616c-101-32-194-135-216-239-43-203 156-402 359-359 116 24 221 129 245 245 46 216-177 419-388 353z"/>
  <path d="m1834 8616c-101-32-194-135-216-239-43-203 156-402 359-359 116 24 221 129 245 245 46 216-177 419-388 353z"/>
  <path d="m3114 8616c-101-32-194-135-216-239-43-203 156-402 359-359 116 24 221 129 245 245 46 216-177 419-388 353z"/>
  <path d="m4394 8616c-101-32-194-135-216-239-43-203 156-402 359-359 116 24 221 129 245 245 46 216-177 419-388 353z"/>
  <path d="m5674 8616c-101-32-194-135-216-239-43-203 156-402 359-359 116 24 221 129 245 245 46 216-177 419-388 353z"/>
  <path d="m6954 8616c-101-32-194-135-216-239-43-203 156-402 359-359 116 24 221 129 245 245 46 216-177 419-388 353z"/>
  <path d="m8234 8616c-101-32-194-135-216-239-43-203 156-402 359-359 116 24 221 129 245 245 46 216-177 419-388 353z"/>
  <path d="m9514 8616c-101-32-194-135-216-239-43-203 156-402 359-359 116 24 221 129 245 245 46 216-177 419-388 353z"/>
  <path d="m10794 8616c-101-32-194-135-216-239-43-203 156-402 359-359 116 24 221 129 245 245 46 216-177 419-388 353z"/>
  <path d="m12074 8616c-101-32-194-135-216-239-43-203 156-402 359-359 116 24 221 129 245 245 46 216-177 419-388 353z"/>
  <path d="m554 7336c-101-32-194-135-216-239-43-203 156-402 359-359 116 24 221 129 245 245 46 216-177 419-388 353z"/>
  <path d="m1834 7336c-101-32-194-135-216-239-43-203 156-402 359-359 116 24 221 129 245 245 46 216-177 419-388 353z"/>
  <path d="m3114 7336c-101-32-194-135-216-239-43-203 156-402 359-359 116 24 221 129 245 245 46 216-177 419-388 353z"/>
  <path d="m4394 7336c-101-32-194-135-216-239-43-203 156-402 359-359 116 24 221 129 245 245 46 216-177 419-388 353z"/>
  <path d="m5674 7336c-101-32-194-135-216-239-43-203 156-402 359-359 116 24 221 129 245 245 46 216-177 419-388 353z"/>
  <path d="m6954 7336c-101-32-194-135-216-239-43-203 156-402 359-359 116 24 221 129 245 245 46 216-177 419-388 353z"/>
  <path d="m8234 7336c-101-32-194-135-216-239-43-203 156-402 359-359 116 24 221 129 245 245 46 216-177 419-388 353z"/>
  <path d="m9514 7336c-101-32-194-135-216-239-43-203 156-402 359-359 116 24 221 129 245 245 46 216-177 419-388 353z"/>
  <path d="m10794 7336c-101-32-194-135-216-239-43-203 156-402 359-359 116 24 221 129 245 245 46 216-177 419-388 353z"/>
  <path d="m12074 7336c-101-32-194-135-216-239-43-203 156-402 359-359 116 24 221 129 245 245 46 216-177 419-388 353z"/>
  <path d="m554 6056c-101-32-194-135-216-239-43-203 156-402 359-359 116 24 221 129 245 245 46 216-177 419-388 353z"/>
  <path d="m1834 6056c-101-32-194-135-216-239-43-203 156-402 359-359 116 24 221 129 245 245 46 216-177 419-388 353z"/>
  <path d="m3114 6056c-101-32-194-135-216-239-43-203 156-402 359-359 116 24 221 129 245 245 46 216-177 419-388 353z"/>
  <path d="m4394 6056c-101-32-194-135-216-239-43-203 156-402 359-359 116 24 221 129 245 245 46 216-177 419-388 353z"/>
  <path d="m5674 6056c-101-32-194-135-216-239-43-203 156-402 359-359 116 24 221 129 245 245 46 216-177 419-388 353z"/>
  <path d="m6954 6056c-101-32-194-135-216-239-43-203 156-402 359-359 116 24 221 129 245 245 46 216-177 419-388 353z"/>
  <path d="m8234 6056c-101-32-194-135-216-239-43-203 156-402 359-359 116 24 221 129 245 245 46 216-177 419-388 353z"/>
  <path d="m9514 6056c-101-32-194-135-216-239-43-203 156-402 359-359 116 24 221 129 245 245 46 216-177 419-388 353z"/>
  <path d="m10794 6056c-101-32-194-135-216-239-43-203 156-402 359-359 116 24 221 129 245 245 46 216-177 419-388 353z"/>
  <path d="m12074 6056c-101-32-194-135-216-239-43-203 156-402 359-359 116 24 221 129 245 245 46 216-177 419-388 353z"/>
  <path d="m554 4776c-101-32-194-135-216-239-43-203 156-402 359-359 116 24 221 129 245 245 46 216-177 419-388 353z"/>
  <path d="m1834 4776c-101-32-194-135-216-239-43-203 156-402 359-359 116 24 221 129 245 245 46 216-177 419-388 353z"/>
  <path d="m3114 4776c-101-32-194-135-216-239-43-203 156-402 359-359 116 24 221 129 245 245 46 216-177 419-388 353z"/>
  <path d="m4394 4776c-101-32-194-135-216-239-43-203 156-402 359-359 116 24 221 129 245 245 46 216-177 419-388 353z"/>
  <path d="m5674 4776c-101-32-194-135-216-239-43-203 156-402 359-359 116 24 221 129 245 245 46 216-177 419-388 353z"/>
  <path d="m6954 4776c-101-32-194-135-216-239-43-203 156-402 359-359 116 24 221 129 245 245 46 216-177 419-388 353z"/>
  <path d="m8234 4776c-101-32-194-135-216-239-43-203 156-402 359-359 116 24 221 129 245 245 46 216-177 419-388 353z"/>
  <path d="m9514 4776c-101-32-194-135-216-239-43-203 156-402 359-359 116 24 221 129 245 245 46 216-177 419-388 353z"/>
  <path d="m10794 4776c-101-32-194-135-216-239-43-203 156-402 359-359 116 24 221 129 245 245 46 216-177 419-388 353z"/>
  <path d="m12074 4776c-101-32-194-135-216-239-43-203 156-402 359-359 116 24 221 129 245 245 46 216-177 419-388 353z"/>
  <path d="m554 3496c-101-32-194-135-216-239-43-203 156-402 359-359 116 24 221 129 245 245 46 216-177 419-388 353z"/>
  <path d="m1834 3496c-101-32-194-135-216-239-43-203 156-402 359-359 116 24 221 129 245 245 46 216-177 419-388 353z"/>
  <path d="m3114 3496c-101-32-194-135-216-239-43-203 156-402 359-359 116 24 221 129 245 245 46 216-177 419-388 353z"/>
  <path d="m4394 3496c-101-32-194-135-216-239-43-203 156-402 359-359 116 24 221 129 245 245 46 216-177 419-388 353z"/>
  <path d="m5674 3496c-101-32-194-135-216-239-43-203 156-402 359-359 116 24 221 129 245 245 46 216-177 419-388 353z"/>
  <path d="m6954 3496c-101-32-194-135-216-239-43-203 156-402 359-359 116 24 221 129 245 245 46 216-177 419-388 353z"/>
  <path d="m8234 3496c-101-32-194-135-216-239-43-203 156-402 359-359 116 24 221 129 245 245 46 216-177 419-388 353z"/>
  <path d="m9514 3496c-101-32-194-135-216-239-43-203 156-402 359-359 116 24 221 129 245 245 46 216-177 419-388 353z"/>
  <path d="m10794 3496c-101-32-194-135-216-239-43-203 156-402 359-359 116 24 221 129 245 245 46 216-177 419-388 353z"/>
  <path d="m12074 3496c-101-32-194-135-216-239-43-203 156-402 359-359 116 24 221 129 245 245 46 216-177 419-388 353z"/>
  <path d="m554 2216c-101-32-194-135-216-239-43-203 156-402 359-359 116 24 221 129 245 245 46 216-177 419-388 353z"/>
  <path d="m1834 2216c-101-32-194-135-216-239-43-203 156-402 359-359 116 24 221 129 245 245 46 216-177 419-388 353z"/>
  <path d="m3114 2216c-101-32-194-135-216-239-43-203 156-402 359-359 116 24 221 129 245 245 46 216-177 419-388 353z"/>
  <path d="m4394 2216c-101-32-194-135-216-239-43-203 156-402 359-359 116 24 221 129 245 245 46 216-177 419-388 353z"/>
  <path d="m5674 2216c-101-32-194-135-216-239-43-203 156-402 359-359 116 24 221 129 245 245 46 216-177 419-388 353z"/>
  <path d="m6954 2216c-101-32-194-135-216-239-43-203 156-402 359-359 116 24 221 129 245 245 46 216-177 419-388 353z"/>
  <path d="m8234 2216c-101-32-194-135-216-239-43-203 156-402 359-359 116 24 221 129 245 245 46 216-177 419-388 353z"/>
  <path d="m9514 2216c-101-32-194-135-216-239-43-203 156-402 359-359 116 24 221 129 245 245 46 216-177 419-388 353z"/>
  <path d="m10794 2216c-101-32-194-135-216-239-43-203 156-402 359-359 116 24 221 129 245 245 46 216-177 419-388 353z"/>
  <path d="m12074 2216c-101-32-194-135-216-239-43-203 156-402 359-359 116 24 221 129 245 245 46 216-177 419-388 353z"/>
  <path d="m554 936c-101-32-194-135-216-239-43-203 156-402 359-359 163 34 278 203 245 359-37 175-224 290-388 239z"/>
  <path d="m1834 936c-101-32-194-135-216-239-43-203 156-402 359-359 116 24 221 129 245 245 46 216-177 419-388 353z"/>
  <path d="m3114 936c-101-32-194-135-216-239-43-203 156-402 359-359 116 24 221 129 245 245 46 216-177 419-388 353z"/>
  <path d="m4394 936c-101-32-194-135-216-239-43-203 156-402 359-359 116 24 221 129 245 245 46 216-177 419-388 353z"/>
  <path d="m5674 936c-101-32-194-135-216-239-43-203 156-402 359-359 116 24 221 129 245 245 46 216-177 419-388 353z"/>
  <path d="m6954 936c-101-32-194-135-216-239-43-203 156-402 359-359 116 24 221 129 245 245 46 216-177 419-388 353z"/>
  <path d="m8234 936c-101-32-194-135-216-239-43-203 156-402 359-359 116 24 221 129 245 245 46 216-177 419-388 353z"/>
  <path d="m9514 936c-101-32-194-135-216-239-43-203 156-402 359-359 116 24 221 129 245 245 46 216-177 419-388 353z"/>
  <path d="m10794 936c-101-32-194-135-216-239-43-203 156-402 359-359 116 24 221 129 245 245 46 216-177 419-388 353z"/>
  <path d="m12074 936c-101-32-194-135-216-239-43-203 156-402 359-359 116 24 221 129 245 245 46 216-177 419-388 353z"/>
 </g>
</svg>
