<svg xmlns="http://www.w3.org/2000/svg" fill-rule="evenodd" stroke-linejoin="round" stroke-miterlimit="2" clip-rule="evenodd" viewBox="0 0 64 64"><rect width="64" height="64" fill="none"/><path fill="#f9f6f9" d="M694,261.5L678.6,254L652.2,254C650.985,254 650,254.48 650,255.071C650,259.738 650,278.262 650,282.929C650,283.52 650.985,284 652.2,284C659.711,284 684.289,284 691.8,284C693.015,284 694,283.52 694,282.929C694,277.577 694,261.5 694,261.5Z" transform="matrix(.9091 0 0 1.86667 -578.909 -470.133)"/><path d="M694.55,261.5C694.55,261.429 694.492,261.361 694.389,261.311L678.989,253.811C678.886,253.76 678.746,253.732 678.6,253.732L652.2,253.732C650.681,253.732 649.45,254.332 649.45,255.071C649.45,259.738 649.45,278.262 649.45,282.929C649.45,283.668 650.681,284.268 652.2,284.268C659.711,284.268 684.289,284.268 691.8,284.268C693.319,284.268 694.55,283.668 694.55,282.929C694.55,277.577 694.55,261.5 694.55,261.5ZM678.372,254.268L652.2,254.268C651.289,254.268 650.55,254.628 650.55,255.071C650.55,259.738 650.55,278.262 650.55,282.929C650.55,283.372 651.289,283.732 652.2,283.732C659.711,283.732 684.289,283.732 691.8,283.732C692.711,283.732 693.45,283.372 693.45,282.929L693.45,261.611L678.372,254.268Z" transform="matrix(.9091 0 0 1.86667 -578.909 -470.133)"/><path fill="#c1d5e4" d="M770,20C770,18.896 768.848,18 767.429,18L736.571,18C735.152,18 734,18.896 734,20C734,21.104 735.152,22 736.571,22L767.429,22C768.848,22 770,21.104 770,20Z" transform="matrix(.77778 0 0 1 -552.889 12)"/><path d="M770.643,20C770.643,18.62 769.203,17.5 767.429,17.5C767.429,17.5 736.571,17.5 736.571,17.5C734.797,17.5 733.357,18.62 733.357,20C733.357,21.38 734.797,22.5 736.571,22.5C736.571,22.5 767.429,22.5 767.429,22.5C769.203,22.5 770.643,21.38 770.643,20ZM769.357,20C769.357,20.828 768.493,21.5 767.429,21.5L736.571,21.5C735.507,21.5 734.643,20.828 734.643,20C734.643,19.172 735.507,18.5 736.571,18.5L767.429,18.5C768.493,18.5 769.357,19.172 769.357,20Z" transform="matrix(.77778 0 0 1 -552.889 12)"/><path fill="#c1d5e4" d="M770,20C770,18.896 768.387,18 766.4,18L737.6,18C735.613,18 734,18.896 734,20C734,21.104 735.613,22 737.6,22L766.4,22C768.387,22 770,21.104 770,20Z" transform="matrix(.55556 0 0 1 -389.778 0)"/><path d="M770.9,20C770.9,18.62 768.884,17.5 766.4,17.5L737.6,17.5C735.116,17.5 733.1,18.62 733.1,20C733.1,21.38 735.116,22.5 737.6,22.5C737.6,22.5 766.4,22.5 766.4,22.5C768.884,22.5 770.9,21.38 770.9,20ZM769.1,20C769.1,20.828 767.89,21.5 766.4,21.5L737.6,21.5C736.11,21.5 734.9,20.828 734.9,20C734.9,19.172 736.11,18.5 737.6,18.5C737.6,18.5 766.4,18.5 766.4,18.5C767.89,18.5 769.1,19.172 769.1,20Z" transform="matrix(.55556 0 0 1 -389.778 0)"/><path fill="#c1d5e4" d="M770,20C770,18.896 768.387,18 766.4,18L737.6,18C735.613,18 734,18.896 734,20C734,21.104 735.613,22 737.6,22L766.4,22C768.387,22 770,21.104 770,20Z" transform="matrix(.55556 0 0 1 -389.778 24)"/><path d="M770.9,20C770.9,18.62 768.884,17.5 766.4,17.5L737.6,17.5C735.116,17.5 733.1,18.62 733.1,20C733.1,21.38 735.116,22.5 737.6,22.5C737.6,22.5 766.4,22.5 766.4,22.5C768.884,22.5 770.9,21.38 770.9,20ZM769.1,20C769.1,20.828 767.89,21.5 766.4,21.5L737.6,21.5C736.11,21.5 734.9,20.828 734.9,20C734.9,19.172 736.11,18.5 737.6,18.5C737.6,18.5 766.4,18.5 766.4,18.5C767.89,18.5 769.1,19.172 769.1,20Z" transform="matrix(.55556 0 0 1 -389.778 24)"/><path fill="#9bb9c1" d="M120,564L132,576L121.714,576C120.768,576 120,575.232 120,574.286L120,564Z" transform="translate(-102 -654) scale(1.16667)"/><path d="M120.303,563.697C120.18,563.574 119.996,563.538 119.836,563.604C119.676,563.67 119.571,563.827 119.571,564L119.571,574.286C119.571,575.469 120.531,576.429 121.714,576.429C125.03,576.429 132,576.429 132,576.429C132.173,576.429 132.33,576.324 132.396,576.164C132.462,576.004 132.426,575.82 132.303,575.697L120.303,563.697ZM130.965,575.571L120.429,565.035L120.429,574.286C120.429,574.996 121.004,575.571 121.714,575.571L130.965,575.571Z" transform="translate(-102 -654) scale(1.16667)"/></svg>